<mxfile host="app.diagrams.net" modified="2023-10-17T09:45:50.032Z" agent="Mozilla/5.0 (Macintosh; Intel Mac OS X 10_15_7) AppleWebKit/537.36 (KHTML, like Gecko) Chrome/118.0.0.0 Safari/537.36" etag="nqzS-jUma8ZINFzEJ9z8" version="22.0.4" type="device">
  <diagram name="Seite-1" id="AGO4w9bAiZwCKHdIQ1ER">
    <mxGraphModel dx="-8" dy="1606" grid="1" gridSize="10" guides="1" tooltips="1" connect="1" arrows="1" fold="1" page="1" pageScale="1" pageWidth="827" pageHeight="1169" math="0" shadow="0">
      <root>
        <mxCell id="0" />
        <mxCell id="1" parent="0" />
        <mxCell id="33G6VH_ctWsSGi1h_gjd-9" style="edgeStyle=orthogonalEdgeStyle;rounded=0;orthogonalLoop=1;jettySize=auto;html=1;exitX=0.5;exitY=0;exitDx=0;exitDy=0;entryX=0.5;entryY=1;entryDx=0;entryDy=0;" parent="1" source="33G6VH_ctWsSGi1h_gjd-1" target="33G6VH_ctWsSGi1h_gjd-5" edge="1">
          <mxGeometry relative="1" as="geometry" />
        </mxCell>
        <mxCell id="33G6VH_ctWsSGi1h_gjd-10" value="inherits" style="edgeLabel;html=1;align=center;verticalAlign=middle;resizable=0;points=[];" parent="33G6VH_ctWsSGi1h_gjd-9" vertex="1" connectable="0">
          <mxGeometry x="0.1053" y="-1" relative="1" as="geometry">
            <mxPoint x="-1" y="2" as="offset" />
          </mxGeometry>
        </mxCell>
        <mxCell id="33G6VH_ctWsSGi1h_gjd-1" value="TabBarViewController" style="swimlane;fontStyle=1;align=center;verticalAlign=top;childLayout=stackLayout;horizontal=1;startSize=26;horizontalStack=0;resizeParent=1;resizeParentMax=0;resizeLast=0;collapsible=1;marginBottom=0;whiteSpace=wrap;html=1;" parent="1" vertex="1">
          <mxGeometry x="3450" y="-247" width="160" height="60" as="geometry">
            <mxRectangle x="40" y="150" width="170" height="30" as="alternateBounds" />
          </mxGeometry>
        </mxCell>
        <mxCell id="33G6VH_ctWsSGi1h_gjd-3" value="" style="line;strokeWidth=1;fillColor=none;align=left;verticalAlign=middle;spacingTop=-1;spacingLeft=3;spacingRight=3;rotatable=0;labelPosition=right;points=[];portConstraint=eastwest;strokeColor=inherit;" parent="33G6VH_ctWsSGi1h_gjd-1" vertex="1">
          <mxGeometry y="26" width="160" height="8" as="geometry" />
        </mxCell>
        <mxCell id="33G6VH_ctWsSGi1h_gjd-4" value="+viewDidLoad()" style="text;strokeColor=none;fillColor=none;align=left;verticalAlign=top;spacingLeft=4;spacingRight=4;overflow=hidden;rotatable=0;points=[[0,0.5],[1,0.5]];portConstraint=eastwest;whiteSpace=wrap;html=1;" parent="33G6VH_ctWsSGi1h_gjd-1" vertex="1">
          <mxGeometry y="34" width="160" height="26" as="geometry" />
        </mxCell>
        <mxCell id="33G6VH_ctWsSGi1h_gjd-5" value="UITabBarController" style="swimlane;fontStyle=1;align=center;verticalAlign=top;childLayout=stackLayout;horizontal=1;startSize=26;horizontalStack=0;resizeParent=1;resizeParentMax=0;resizeLast=0;collapsible=1;marginBottom=0;whiteSpace=wrap;html=1;" parent="1" vertex="1">
          <mxGeometry x="3450" y="-397" width="160" height="34" as="geometry" />
        </mxCell>
        <mxCell id="33G6VH_ctWsSGi1h_gjd-7" value="" style="line;strokeWidth=1;fillColor=none;align=left;verticalAlign=middle;spacingTop=-1;spacingLeft=3;spacingRight=3;rotatable=0;labelPosition=right;points=[];portConstraint=eastwest;strokeColor=inherit;" parent="33G6VH_ctWsSGi1h_gjd-5" vertex="1">
          <mxGeometry y="26" width="160" height="8" as="geometry" />
        </mxCell>
        <mxCell id="33G6VH_ctWsSGi1h_gjd-76" value="UIViewController" style="swimlane;fontStyle=1;align=center;verticalAlign=top;childLayout=stackLayout;horizontal=1;startSize=26;horizontalStack=0;resizeParent=1;resizeParentMax=0;resizeLast=0;collapsible=1;marginBottom=0;whiteSpace=wrap;html=1;" parent="1" vertex="1">
          <mxGeometry x="3250" width="160" height="34" as="geometry" />
        </mxCell>
        <mxCell id="33G6VH_ctWsSGi1h_gjd-77" value="" style="line;strokeWidth=1;fillColor=none;align=left;verticalAlign=middle;spacingTop=-1;spacingLeft=3;spacingRight=3;rotatable=0;labelPosition=right;points=[];portConstraint=eastwest;strokeColor=inherit;" parent="33G6VH_ctWsSGi1h_gjd-76" vertex="1">
          <mxGeometry y="26" width="160" height="8" as="geometry" />
        </mxCell>
        <mxCell id="33G6VH_ctWsSGi1h_gjd-122" style="edgeStyle=orthogonalEdgeStyle;rounded=0;orthogonalLoop=1;jettySize=auto;html=1;exitX=0.5;exitY=0;exitDx=0;exitDy=0;entryX=0.5;entryY=1;entryDx=0;entryDy=0;" parent="1" source="33G6VH_ctWsSGi1h_gjd-17" target="33G6VH_ctWsSGi1h_gjd-76" edge="1">
          <mxGeometry relative="1" as="geometry" />
        </mxCell>
        <mxCell id="33G6VH_ctWsSGi1h_gjd-127" value="inherits" style="edgeLabel;html=1;align=center;verticalAlign=middle;resizable=0;points=[];" parent="33G6VH_ctWsSGi1h_gjd-122" vertex="1" connectable="0">
          <mxGeometry x="-0.951" y="-2" relative="1" as="geometry">
            <mxPoint as="offset" />
          </mxGeometry>
        </mxCell>
        <mxCell id="33G6VH_ctWsSGi1h_gjd-17" value="FilterViewController" style="swimlane;fontStyle=1;align=center;verticalAlign=top;childLayout=stackLayout;horizontal=1;startSize=26;horizontalStack=0;resizeParent=1;resizeParentMax=0;resizeLast=0;collapsible=1;marginBottom=0;whiteSpace=wrap;html=1;" parent="1" vertex="1">
          <mxGeometry x="2060" y="150" width="360" height="406" as="geometry">
            <mxRectangle x="230" y="150" width="150" height="30" as="alternateBounds" />
          </mxGeometry>
        </mxCell>
        <mxCell id="33G6VH_ctWsSGi1h_gjd-18" value="+mediaModel&lt;br&gt;+importedVC&lt;br&gt;+filterButton: UIButton&lt;br style=&quot;border-color: var(--border-color);&quot;&gt;+customView : UIView&lt;br&gt;+dateOffView: UIView&lt;br&gt;+bpmOffView: UIView&lt;br&gt;+dateToggle: UISwitch&lt;br&gt;+bpmToggle: UISwitch&lt;br style=&quot;border-color: var(--border-color);&quot;&gt;+mediaSegmentedControl: UISegmentedControl&lt;br&gt;+handSegmentedControl: UISegmentedControl&lt;br style=&quot;border-color: var(--border-color);&quot;&gt;+gripSegmentedControl: UISegmentedControl&lt;br&gt;+calendarPicker1: UIDatePicker&lt;br&gt;+calendarPicker2: UIDatePicker&lt;br&gt;+interpretTextField: UITextField&lt;br&gt;+gripTextField: UITextField&lt;br&gt;+rangeSlider: RangeUISlider" style="text;strokeColor=none;fillColor=none;align=left;verticalAlign=top;spacingLeft=4;spacingRight=4;overflow=hidden;rotatable=0;points=[[0,0.5],[1,0.5]];portConstraint=eastwest;whiteSpace=wrap;html=1;" parent="33G6VH_ctWsSGi1h_gjd-17" vertex="1">
          <mxGeometry y="26" width="360" height="240" as="geometry" />
        </mxCell>
        <mxCell id="33G6VH_ctWsSGi1h_gjd-19" value="" style="line;strokeWidth=1;fillColor=none;align=left;verticalAlign=middle;spacingTop=-1;spacingLeft=3;spacingRight=3;rotatable=0;labelPosition=right;points=[];portConstraint=eastwest;strokeColor=inherit;" parent="33G6VH_ctWsSGi1h_gjd-17" vertex="1">
          <mxGeometry y="266" width="360" height="10" as="geometry" />
        </mxCell>
        <mxCell id="33G6VH_ctWsSGi1h_gjd-20" value="+viewDidLoad()&lt;br&gt;+closeFilter()&lt;br&gt;+dateToggleChanged(sender: UISwitch)&lt;br&gt;+bpmToggleChanged(sender:&amp;nbsp;UISwitch)&lt;br&gt;+datePickerValueChanged(sender:&amp;nbsp;UISwitch)&lt;br&gt;+segmentedControlValueChanged(sender:UISegmentedControl)&lt;br&gt;+setFilterSettings()&lt;br&gt;+rangeIsChanging(event: RangeUISliderChangeEvent)" style="text;strokeColor=none;fillColor=none;align=left;verticalAlign=top;spacingLeft=4;spacingRight=4;overflow=hidden;rotatable=0;points=[[0,0.5],[1,0.5]];portConstraint=eastwest;html=1;whiteSpace=wrap;spacing=2;spacingBottom=0;" parent="33G6VH_ctWsSGi1h_gjd-17" vertex="1">
          <mxGeometry y="276" width="360" height="130" as="geometry" />
        </mxCell>
        <mxCell id="33G6VH_ctWsSGi1h_gjd-123" style="edgeStyle=orthogonalEdgeStyle;rounded=0;orthogonalLoop=1;jettySize=auto;html=1;exitX=0.5;exitY=0;exitDx=0;exitDy=0;entryX=0.5;entryY=1;entryDx=0;entryDy=0;" parent="1" source="33G6VH_ctWsSGi1h_gjd-25" target="33G6VH_ctWsSGi1h_gjd-76" edge="1">
          <mxGeometry relative="1" as="geometry" />
        </mxCell>
        <mxCell id="33G6VH_ctWsSGi1h_gjd-126" value="inherits" style="edgeLabel;html=1;align=center;verticalAlign=middle;resizable=0;points=[];" parent="33G6VH_ctWsSGi1h_gjd-123" vertex="1" connectable="0">
          <mxGeometry x="-0.9623" y="-1" relative="1" as="geometry">
            <mxPoint as="offset" />
          </mxGeometry>
        </mxCell>
        <mxCell id="33G6VH_ctWsSGi1h_gjd-25" value="TrashViewController" style="swimlane;fontStyle=1;align=center;verticalAlign=top;childLayout=stackLayout;horizontal=1;startSize=26;horizontalStack=0;resizeParent=1;resizeParentMax=0;resizeLast=0;collapsible=1;marginBottom=0;whiteSpace=wrap;html=1;" parent="1" vertex="1">
          <mxGeometry x="1720" y="150" width="320" height="226" as="geometry" />
        </mxCell>
        <mxCell id="33G6VH_ctWsSGi1h_gjd-26" value="+trashURL&lt;br&gt;+trashModel&lt;br&gt;+mediaModel&lt;br&gt;+objectIDs&lt;br&gt;+emptyTrashButton: UIButton&lt;br&gt;+collectionView: UICollectionView" style="text;strokeColor=none;fillColor=none;align=left;verticalAlign=top;spacingLeft=4;spacingRight=4;overflow=hidden;rotatable=0;points=[[0,0.5],[1,0.5]];portConstraint=eastwest;whiteSpace=wrap;html=1;" parent="33G6VH_ctWsSGi1h_gjd-25" vertex="1">
          <mxGeometry y="26" width="320" height="100" as="geometry" />
        </mxCell>
        <mxCell id="33G6VH_ctWsSGi1h_gjd-27" value="" style="line;strokeWidth=1;fillColor=none;align=left;verticalAlign=middle;spacingTop=-1;spacingLeft=3;spacingRight=3;rotatable=0;labelPosition=right;points=[];portConstraint=eastwest;strokeColor=inherit;" parent="33G6VH_ctWsSGi1h_gjd-25" vertex="1">
          <mxGeometry y="126" width="320" height="10" as="geometry" />
        </mxCell>
        <mxCell id="33G6VH_ctWsSGi1h_gjd-28" value="+viewDidLoad()&lt;br&gt;+updateUIWithSelectedMedia(notification: Notification)&lt;br&gt;+updateCollectionView(mediaURL: [URL])&lt;br&gt;+generateThumbnail(videoURL: URL)&lt;br&gt;+emptyTrash()" style="text;strokeColor=none;fillColor=none;align=left;verticalAlign=top;spacingLeft=4;spacingRight=4;overflow=hidden;rotatable=0;points=[[0,0.5],[1,0.5]];portConstraint=eastwest;whiteSpace=wrap;html=1;" parent="33G6VH_ctWsSGi1h_gjd-25" vertex="1">
          <mxGeometry y="136" width="320" height="90" as="geometry" />
        </mxCell>
        <mxCell id="33G6VH_ctWsSGi1h_gjd-124" style="edgeStyle=orthogonalEdgeStyle;rounded=0;orthogonalLoop=1;jettySize=auto;html=1;exitX=0.5;exitY=0;exitDx=0;exitDy=0;entryX=0.5;entryY=1;entryDx=0;entryDy=0;" parent="1" source="33G6VH_ctWsSGi1h_gjd-32" target="33G6VH_ctWsSGi1h_gjd-76" edge="1">
          <mxGeometry relative="1" as="geometry" />
        </mxCell>
        <mxCell id="33G6VH_ctWsSGi1h_gjd-125" value="inherits" style="edgeLabel;html=1;align=center;verticalAlign=middle;resizable=0;points=[];" parent="33G6VH_ctWsSGi1h_gjd-124" vertex="1" connectable="0">
          <mxGeometry x="-0.9692" relative="1" as="geometry">
            <mxPoint as="offset" />
          </mxGeometry>
        </mxCell>
        <mxCell id="33G6VH_ctWsSGi1h_gjd-32" value="ImportedViewController" style="swimlane;fontStyle=1;align=center;verticalAlign=top;childLayout=stackLayout;horizontal=1;startSize=26;horizontalStack=0;resizeParent=1;resizeParentMax=0;resizeLast=0;collapsible=1;marginBottom=0;whiteSpace=wrap;html=1;" parent="1" vertex="1">
          <mxGeometry x="1350" y="150" width="350" height="346" as="geometry" />
        </mxCell>
        <mxCell id="33G6VH_ctWsSGi1h_gjd-33" value="+mediaURL&lt;br&gt;+mediaModel&lt;br&gt;+objectIDs&lt;br&gt;+photoVC&lt;br&gt;+videoVC&lt;br&gt;+handTrackingVC&lt;br&gt;+selectionStatus&lt;br&gt;+selectedCount&lt;br&gt;+filterButton: UIButton&lt;br&gt;+galleryButton: UIButton&lt;br style=&quot;border-color: var(--border-color);&quot;&gt;+compareButton: UIButton&lt;br style=&quot;border-color: var(--border-color);&quot;&gt;+collectionView: UICollectionView" style="text;strokeColor=none;fillColor=none;align=left;verticalAlign=top;spacingLeft=4;spacingRight=4;overflow=hidden;rotatable=0;points=[[0,0.5],[1,0.5]];portConstraint=eastwest;whiteSpace=wrap;html=1;" parent="33G6VH_ctWsSGi1h_gjd-32" vertex="1">
          <mxGeometry y="26" width="350" height="180" as="geometry" />
        </mxCell>
        <mxCell id="33G6VH_ctWsSGi1h_gjd-34" value="" style="line;strokeWidth=1;fillColor=none;align=left;verticalAlign=middle;spacingTop=-1;spacingLeft=3;spacingRight=3;rotatable=0;labelPosition=right;points=[];portConstraint=eastwest;strokeColor=inherit;" parent="33G6VH_ctWsSGi1h_gjd-32" vertex="1">
          <mxGeometry y="206" width="350" height="10" as="geometry" />
        </mxCell>
        <mxCell id="33G6VH_ctWsSGi1h_gjd-35" value="+viewDidLoad()&#xa;+updateUIWithSelectedMedia(notification: Notification)&#xa;+openFilter()&#xa;+openGallery()&#xa;+openComparison()&#xa;+handleLongPress(gesture: UILongPressGestureRecognizer)&#xa;+updateCollectionView(mediaURL: [URL])&#xa;+generateThumbnail(videoURL: URL)&#xa;" style="text;strokeColor=none;fillColor=none;align=left;verticalAlign=top;spacingLeft=4;spacingRight=4;overflow=hidden;rotatable=0;points=[[0,0.5],[1,0.5]];portConstraint=eastwest;whiteSpace=wrap;html=1;" parent="33G6VH_ctWsSGi1h_gjd-32" vertex="1">
          <mxGeometry y="216" width="350" height="130" as="geometry" />
        </mxCell>
        <mxCell id="33G6VH_ctWsSGi1h_gjd-118" style="edgeStyle=orthogonalEdgeStyle;rounded=0;orthogonalLoop=1;jettySize=auto;html=1;exitX=0.5;exitY=0;exitDx=0;exitDy=0;entryX=0.5;entryY=1;entryDx=0;entryDy=0;" parent="1" source="33G6VH_ctWsSGi1h_gjd-38" target="33G6VH_ctWsSGi1h_gjd-76" edge="1">
          <mxGeometry relative="1" as="geometry" />
        </mxCell>
        <mxCell id="33G6VH_ctWsSGi1h_gjd-133" value="inherits" style="edgeLabel;html=1;align=center;verticalAlign=middle;resizable=0;points=[];" parent="33G6VH_ctWsSGi1h_gjd-118" vertex="1" connectable="0">
          <mxGeometry x="-0.9526" y="-2" relative="1" as="geometry">
            <mxPoint x="-2" y="-4" as="offset" />
          </mxGeometry>
        </mxCell>
        <mxCell id="33G6VH_ctWsSGi1h_gjd-38" value="HandTrackingViewController" style="swimlane;fontStyle=1;align=center;verticalAlign=top;childLayout=stackLayout;horizontal=1;startSize=26;horizontalStack=0;resizeParent=1;resizeParentMax=0;resizeLast=0;collapsible=1;marginBottom=0;whiteSpace=wrap;html=1;" parent="1" vertex="1">
          <mxGeometry x="4150" y="150" width="360" height="334" as="geometry" />
        </mxCell>
        <mxCell id="33G6VH_ctWsSGi1h_gjd-39" value="+mediaModel&lt;br&gt;+objectID: NSManagedObjectID?&lt;br&gt;+mediaURL: URL?&lt;br&gt;+uiImage: UIImage?&lt;br&gt;+result: HandLandmarkerResult?&lt;br&gt;+closeButton: UIButton&lt;br&gt;+imageView: UIImageView&lt;br&gt;+trackingView: UIImageView&lt;br&gt;+trackingSegmentedControl: UISegmentedControl&lt;br&gt;+photoTitle: UILabel&lt;br&gt;+handLabel1: UILabel&lt;br&gt;+handLabel2: UILabel&lt;br&gt;+handLabel3: UILabel&lt;br&gt;+handLabel4: UILabel" style="text;strokeColor=none;fillColor=none;align=left;verticalAlign=top;spacingLeft=4;spacingRight=4;overflow=hidden;rotatable=0;points=[[0,0.5],[1,0.5]];portConstraint=eastwest;whiteSpace=wrap;html=1;" parent="33G6VH_ctWsSGi1h_gjd-38" vertex="1">
          <mxGeometry y="26" width="360" height="214" as="geometry" />
        </mxCell>
        <mxCell id="33G6VH_ctWsSGi1h_gjd-40" value="" style="line;strokeWidth=1;fillColor=none;align=left;verticalAlign=middle;spacingTop=-1;spacingLeft=3;spacingRight=3;rotatable=0;labelPosition=right;points=[];portConstraint=eastwest;strokeColor=inherit;" parent="33G6VH_ctWsSGi1h_gjd-38" vertex="1">
          <mxGeometry y="240" width="360" height="10" as="geometry" />
        </mxCell>
        <mxCell id="33G6VH_ctWsSGi1h_gjd-41" value="+viewDidLoad()&lt;br&gt;+closeVC()&lt;br&gt;+segmentedControlValueChanged(sender:UISegmentedControl)&lt;br&gt;+updateObjectID(notification: Notification)&lt;br&gt;+updatePhoto(notification: Notification)" style="text;strokeColor=none;fillColor=none;align=left;verticalAlign=top;spacingLeft=4;spacingRight=4;overflow=hidden;rotatable=0;points=[[0,0.5],[1,0.5]];portConstraint=eastwest;whiteSpace=wrap;html=1;" parent="33G6VH_ctWsSGi1h_gjd-38" vertex="1">
          <mxGeometry y="250" width="360" height="84" as="geometry" />
        </mxCell>
        <mxCell id="33G6VH_ctWsSGi1h_gjd-120" style="edgeStyle=orthogonalEdgeStyle;rounded=0;orthogonalLoop=1;jettySize=auto;html=1;exitX=0.5;exitY=0;exitDx=0;exitDy=0;entryX=0.5;entryY=1;entryDx=0;entryDy=0;" parent="1" source="33G6VH_ctWsSGi1h_gjd-44" target="33G6VH_ctWsSGi1h_gjd-76" edge="1">
          <mxGeometry relative="1" as="geometry" />
        </mxCell>
        <mxCell id="33G6VH_ctWsSGi1h_gjd-128" value="inherits" style="edgeLabel;html=1;align=center;verticalAlign=middle;resizable=0;points=[];" parent="33G6VH_ctWsSGi1h_gjd-120" vertex="1" connectable="0">
          <mxGeometry x="-0.9203" y="1" relative="1" as="geometry">
            <mxPoint as="offset" />
          </mxGeometry>
        </mxCell>
        <mxCell id="33G6VH_ctWsSGi1h_gjd-44" value="PhotoComparisonViewController" style="swimlane;fontStyle=1;align=center;verticalAlign=top;childLayout=stackLayout;horizontal=1;startSize=26;horizontalStack=0;resizeParent=1;resizeParentMax=0;resizeLast=0;collapsible=1;marginBottom=0;whiteSpace=wrap;html=1;" parent="1" vertex="1">
          <mxGeometry x="2440" y="150" width="490" height="200" as="geometry" />
        </mxCell>
        <mxCell id="33G6VH_ctWsSGi1h_gjd-45" value="+images: [UIImage]&lt;br&gt;+results: [HandLandmarkerResult]&lt;br&gt;+colors: [UIColor]&lt;br&gt;+closeButton: UIButton&lt;br&gt;" style="text;strokeColor=none;fillColor=none;align=left;verticalAlign=top;spacingLeft=4;spacingRight=4;overflow=hidden;rotatable=0;points=[[0,0.5],[1,0.5]];portConstraint=eastwest;whiteSpace=wrap;html=1;" parent="33G6VH_ctWsSGi1h_gjd-44" vertex="1">
          <mxGeometry y="26" width="490" height="64" as="geometry" />
        </mxCell>
        <mxCell id="33G6VH_ctWsSGi1h_gjd-46" value="" style="line;strokeWidth=1;fillColor=none;align=left;verticalAlign=middle;spacingTop=-1;spacingLeft=3;spacingRight=3;rotatable=0;labelPosition=right;points=[];portConstraint=eastwest;strokeColor=inherit;" parent="33G6VH_ctWsSGi1h_gjd-44" vertex="1">
          <mxGeometry y="90" width="490" height="10" as="geometry" />
        </mxCell>
        <mxCell id="33G6VH_ctWsSGi1h_gjd-47" value="+viewDidLoad()&lt;br&gt;+closeVC()&lt;br&gt;+addPoints(coordinates: [SCNVector3], scene: SCNScene, color: UIColor)&lt;br&gt;+connectPoints(coordinates: [SCNVector3], scene: SCNScene, color: UIColor)&lt;br&gt;+lineFrom(vector: SCNVector3, toVector: SCNVector3,&amp;nbsp; scene: SCNScene, color: UIColor)&lt;br&gt;+shiftCoordinates(coordinates: [SCNVector3])" style="text;strokeColor=none;fillColor=none;align=left;verticalAlign=top;spacingLeft=4;spacingRight=4;overflow=hidden;rotatable=0;points=[[0,0.5],[1,0.5]];portConstraint=eastwest;whiteSpace=wrap;html=1;" parent="33G6VH_ctWsSGi1h_gjd-44" vertex="1">
          <mxGeometry y="100" width="490" height="100" as="geometry" />
        </mxCell>
        <mxCell id="33G6VH_ctWsSGi1h_gjd-119" style="edgeStyle=orthogonalEdgeStyle;rounded=0;orthogonalLoop=1;jettySize=auto;html=1;exitX=0.5;exitY=0;exitDx=0;exitDy=0;entryX=0.5;entryY=1;entryDx=0;entryDy=0;" parent="1" source="33G6VH_ctWsSGi1h_gjd-50" target="33G6VH_ctWsSGi1h_gjd-76" edge="1">
          <mxGeometry relative="1" as="geometry" />
        </mxCell>
        <mxCell id="33G6VH_ctWsSGi1h_gjd-134" value="inherits" style="edgeLabel;html=1;align=center;verticalAlign=middle;resizable=0;points=[];" parent="33G6VH_ctWsSGi1h_gjd-119" vertex="1" connectable="0">
          <mxGeometry x="-0.9599" y="-2" relative="1" as="geometry">
            <mxPoint x="-2" y="-2" as="offset" />
          </mxGeometry>
        </mxCell>
        <mxCell id="33G6VH_ctWsSGi1h_gjd-50" value="MiscViewController" style="swimlane;fontStyle=1;align=center;verticalAlign=top;childLayout=stackLayout;horizontal=1;startSize=26;horizontalStack=0;resizeParent=1;resizeParentMax=0;resizeLast=0;collapsible=1;marginBottom=0;whiteSpace=wrap;html=1;" parent="1" vertex="1">
          <mxGeometry x="4530" y="150" width="160" height="106" as="geometry" />
        </mxCell>
        <mxCell id="33G6VH_ctWsSGi1h_gjd-51" value="+trashVC&lt;br&gt;+trashButton: UIButton" style="text;strokeColor=none;fillColor=none;align=left;verticalAlign=top;spacingLeft=4;spacingRight=4;overflow=hidden;rotatable=0;points=[[0,0.5],[1,0.5]];portConstraint=eastwest;whiteSpace=wrap;html=1;" parent="33G6VH_ctWsSGi1h_gjd-50" vertex="1">
          <mxGeometry y="26" width="160" height="30" as="geometry" />
        </mxCell>
        <mxCell id="33G6VH_ctWsSGi1h_gjd-52" value="" style="line;strokeWidth=1;fillColor=none;align=left;verticalAlign=middle;spacingTop=-1;spacingLeft=3;spacingRight=3;rotatable=0;labelPosition=right;points=[];portConstraint=eastwest;strokeColor=inherit;" parent="33G6VH_ctWsSGi1h_gjd-50" vertex="1">
          <mxGeometry y="56" width="160" height="10" as="geometry" />
        </mxCell>
        <mxCell id="33G6VH_ctWsSGi1h_gjd-53" value="+viewDidLoad()&lt;br&gt;+openTrash()" style="text;strokeColor=none;fillColor=none;align=left;verticalAlign=top;spacingLeft=4;spacingRight=4;overflow=hidden;rotatable=0;points=[[0,0.5],[1,0.5]];portConstraint=eastwest;whiteSpace=wrap;html=1;" parent="33G6VH_ctWsSGi1h_gjd-50" vertex="1">
          <mxGeometry y="66" width="160" height="40" as="geometry" />
        </mxCell>
        <mxCell id="33G6VH_ctWsSGi1h_gjd-117" style="edgeStyle=orthogonalEdgeStyle;rounded=0;orthogonalLoop=1;jettySize=auto;html=1;exitX=0.5;exitY=0;exitDx=0;exitDy=0;entryX=0.5;entryY=1;entryDx=0;entryDy=0;" parent="1" source="33G6VH_ctWsSGi1h_gjd-56" target="33G6VH_ctWsSGi1h_gjd-76" edge="1">
          <mxGeometry relative="1" as="geometry" />
        </mxCell>
        <mxCell id="33G6VH_ctWsSGi1h_gjd-132" value="inherits" style="edgeLabel;html=1;align=center;verticalAlign=middle;resizable=0;points=[];" parent="33G6VH_ctWsSGi1h_gjd-117" vertex="1" connectable="0">
          <mxGeometry x="-0.9244" y="2" relative="1" as="geometry">
            <mxPoint as="offset" />
          </mxGeometry>
        </mxCell>
        <mxCell id="33G6VH_ctWsSGi1h_gjd-56" value="FullscreenPhotoViewController" style="swimlane;fontStyle=1;align=center;verticalAlign=top;childLayout=stackLayout;horizontal=1;startSize=26;horizontalStack=0;resizeParent=1;resizeParentMax=0;resizeLast=0;collapsible=1;marginBottom=0;whiteSpace=wrap;html=1;" parent="1" vertex="1">
          <mxGeometry x="3860" y="150" width="270" height="176" as="geometry" />
        </mxCell>
        <mxCell id="33G6VH_ctWsSGi1h_gjd-57" value="+image: UIImage?&lt;br&gt;+closeButton: UIButton&lt;br&gt;+fullscreenImageView: UIImageView&lt;br&gt;+scrollView: UIScrollView" style="text;strokeColor=none;fillColor=none;align=left;verticalAlign=top;spacingLeft=4;spacingRight=4;overflow=hidden;rotatable=0;points=[[0,0.5],[1,0.5]];portConstraint=eastwest;whiteSpace=wrap;html=1;" parent="33G6VH_ctWsSGi1h_gjd-56" vertex="1">
          <mxGeometry y="26" width="270" height="70" as="geometry" />
        </mxCell>
        <mxCell id="33G6VH_ctWsSGi1h_gjd-58" value="" style="line;strokeWidth=1;fillColor=none;align=left;verticalAlign=middle;spacingTop=-1;spacingLeft=3;spacingRight=3;rotatable=0;labelPosition=right;points=[];portConstraint=eastwest;strokeColor=inherit;" parent="33G6VH_ctWsSGi1h_gjd-56" vertex="1">
          <mxGeometry y="96" width="270" height="10" as="geometry" />
        </mxCell>
        <mxCell id="33G6VH_ctWsSGi1h_gjd-59" value="+viewDidLoad()&#xa;+updateUI(notification: Notification)&#xa;+closeFullscreen()&#xa;+viewForZooming(scrollView: UIScrollView)" style="text;strokeColor=none;fillColor=none;align=left;verticalAlign=top;spacingLeft=4;spacingRight=4;overflow=hidden;rotatable=0;points=[[0,0.5],[1,0.5]];portConstraint=eastwest;whiteSpace=wrap;html=1;" parent="33G6VH_ctWsSGi1h_gjd-56" vertex="1">
          <mxGeometry y="106" width="270" height="70" as="geometry" />
        </mxCell>
        <mxCell id="33G6VH_ctWsSGi1h_gjd-113" style="edgeStyle=orthogonalEdgeStyle;rounded=0;orthogonalLoop=1;jettySize=auto;html=1;exitX=0.5;exitY=0;exitDx=0;exitDy=0;entryX=0.5;entryY=1;entryDx=0;entryDy=0;" parent="1" source="33G6VH_ctWsSGi1h_gjd-62" target="33G6VH_ctWsSGi1h_gjd-76" edge="1">
          <mxGeometry relative="1" as="geometry" />
        </mxCell>
        <mxCell id="33G6VH_ctWsSGi1h_gjd-129" value="inherits" style="edgeLabel;html=1;align=center;verticalAlign=middle;resizable=0;points=[];" parent="33G6VH_ctWsSGi1h_gjd-113" vertex="1" connectable="0">
          <mxGeometry x="-0.815" y="1" relative="1" as="geometry">
            <mxPoint as="offset" />
          </mxGeometry>
        </mxCell>
        <mxCell id="33G6VH_ctWsSGi1h_gjd-62" value="PhotoPickerViewController" style="swimlane;fontStyle=1;align=center;verticalAlign=top;childLayout=stackLayout;horizontal=1;startSize=26;horizontalStack=0;resizeParent=1;resizeParentMax=0;resizeLast=0;collapsible=1;marginBottom=0;whiteSpace=wrap;html=1;" parent="1" vertex="1">
          <mxGeometry x="2950" y="150" width="370" height="176" as="geometry" />
        </mxCell>
        <mxCell id="33G6VH_ctWsSGi1h_gjd-63" value="+mediaModel&lt;br&gt;+importedVC" style="text;strokeColor=none;fillColor=none;align=left;verticalAlign=top;spacingLeft=4;spacingRight=4;overflow=hidden;rotatable=0;points=[[0,0.5],[1,0.5]];portConstraint=eastwest;whiteSpace=wrap;html=1;" parent="33G6VH_ctWsSGi1h_gjd-62" vertex="1">
          <mxGeometry y="26" width="370" height="40" as="geometry" />
        </mxCell>
        <mxCell id="33G6VH_ctWsSGi1h_gjd-64" value="" style="line;strokeWidth=1;fillColor=none;align=left;verticalAlign=middle;spacingTop=-1;spacingLeft=3;spacingRight=3;rotatable=0;labelPosition=right;points=[];portConstraint=eastwest;strokeColor=inherit;" parent="33G6VH_ctWsSGi1h_gjd-62" vertex="1">
          <mxGeometry y="66" width="370" height="10" as="geometry" />
        </mxCell>
        <mxCell id="33G6VH_ctWsSGi1h_gjd-65" value="+viewDidLoad()&lt;br&gt;+viewDidAppear()&lt;br&gt;+presentPhotoPicker()&lt;br&gt;+readMetadataFromPhotoAtPath(imagePath: String)&lt;br&gt;+readMetadataFromVideoAtPath(videoPath: String)&lt;br&gt;+picker(picker: PHPickerViewController, results: [PHPickerResult])" style="text;strokeColor=none;fillColor=none;align=left;verticalAlign=top;spacingLeft=4;spacingRight=4;overflow=hidden;rotatable=0;points=[[0,0.5],[1,0.5]];portConstraint=eastwest;whiteSpace=wrap;html=1;" parent="33G6VH_ctWsSGi1h_gjd-62" vertex="1">
          <mxGeometry y="76" width="370" height="100" as="geometry" />
        </mxCell>
        <mxCell id="33G6VH_ctWsSGi1h_gjd-114" style="edgeStyle=orthogonalEdgeStyle;rounded=0;orthogonalLoop=1;jettySize=auto;html=1;exitX=0.5;exitY=0;exitDx=0;exitDy=0;entryX=0.5;entryY=1;entryDx=0;entryDy=0;" parent="1" source="33G6VH_ctWsSGi1h_gjd-68" target="33G6VH_ctWsSGi1h_gjd-76" edge="1">
          <mxGeometry relative="1" as="geometry" />
        </mxCell>
        <mxCell id="33G6VH_ctWsSGi1h_gjd-130" value="inherits" style="edgeLabel;html=1;align=center;verticalAlign=middle;resizable=0;points=[];" parent="33G6VH_ctWsSGi1h_gjd-114" vertex="1" connectable="0">
          <mxGeometry x="-0.7661" y="2" relative="1" as="geometry">
            <mxPoint as="offset" />
          </mxGeometry>
        </mxCell>
        <mxCell id="33G6VH_ctWsSGi1h_gjd-68" value="PhotoViewController" style="swimlane;fontStyle=1;align=center;verticalAlign=top;childLayout=stackLayout;horizontal=1;startSize=26;horizontalStack=0;resizeParent=1;resizeParentMax=0;resizeLast=0;collapsible=1;marginBottom=0;whiteSpace=wrap;html=1;" parent="1" vertex="1">
          <mxGeometry x="3340" y="150" width="240" height="386" as="geometry" />
        </mxCell>
        <mxCell id="33G6VH_ctWsSGi1h_gjd-69" value="+mediaModel&lt;br&gt;+trashModel&lt;br&gt;+image: UIImage?&lt;br&gt;+photoURL: URL?&lt;br&gt;+objectID: NSManagedObjectID?&lt;br&gt;+metadataArray&lt;br&gt;+metadata: [String]&lt;br&gt;+fullscreenPhotoVC&lt;br&gt;+handTrackingVC&lt;br&gt;+deleteButton: UIButton&lt;br&gt;+trackingButton: UIButton&lt;br&gt;+photoTitle: UILabel&lt;br style=&quot;border-color: var(--border-color);&quot;&gt;+imageView: UIImageView&lt;br&gt;+tableView: UITableView" style="text;strokeColor=none;fillColor=none;align=left;verticalAlign=top;spacingLeft=4;spacingRight=4;overflow=hidden;rotatable=0;points=[[0,0.5],[1,0.5]];portConstraint=eastwest;whiteSpace=wrap;html=1;" parent="33G6VH_ctWsSGi1h_gjd-68" vertex="1">
          <mxGeometry y="26" width="240" height="210" as="geometry" />
        </mxCell>
        <mxCell id="33G6VH_ctWsSGi1h_gjd-70" value="" style="line;strokeWidth=1;fillColor=none;align=left;verticalAlign=middle;spacingTop=-1;spacingLeft=3;spacingRight=3;rotatable=0;labelPosition=right;points=[];portConstraint=eastwest;strokeColor=inherit;" parent="33G6VH_ctWsSGi1h_gjd-68" vertex="1">
          <mxGeometry y="236" width="240" height="10" as="geometry" />
        </mxCell>
        <mxCell id="33G6VH_ctWsSGi1h_gjd-71" value="+viewDidLoad()&#xa;+viewDidLayoutSubviews()&#xa;+updateUI(notification: Notification)&#xa;+updateURL(notification: Notification)&#xa;+updateObjectID(notification: Notification)&#xa;+showFullscreenImage()&#xa;+deleteItem()&#xa;+startHandTracking()&#xa;+editTablePressed(indexPath: IndexPath)" style="text;strokeColor=none;fillColor=none;align=left;verticalAlign=top;spacingLeft=4;spacingRight=4;overflow=hidden;rotatable=0;points=[[0,0.5],[1,0.5]];portConstraint=eastwest;whiteSpace=wrap;html=1;" parent="33G6VH_ctWsSGi1h_gjd-68" vertex="1">
          <mxGeometry y="246" width="240" height="140" as="geometry" />
        </mxCell>
        <mxCell id="33G6VH_ctWsSGi1h_gjd-116" style="edgeStyle=orthogonalEdgeStyle;rounded=0;orthogonalLoop=1;jettySize=auto;html=1;exitX=0.5;exitY=0;exitDx=0;exitDy=0;entryX=0.5;entryY=1;entryDx=0;entryDy=0;" parent="1" source="33G6VH_ctWsSGi1h_gjd-72" target="33G6VH_ctWsSGi1h_gjd-76" edge="1">
          <mxGeometry relative="1" as="geometry" />
        </mxCell>
        <mxCell id="33G6VH_ctWsSGi1h_gjd-131" value="inherits" style="edgeLabel;html=1;align=center;verticalAlign=middle;resizable=0;points=[];" parent="33G6VH_ctWsSGi1h_gjd-116" vertex="1" connectable="0">
          <mxGeometry x="-0.8863" y="-2" relative="1" as="geometry">
            <mxPoint as="offset" />
          </mxGeometry>
        </mxCell>
        <mxCell id="33G6VH_ctWsSGi1h_gjd-72" value="VideoViewController" style="swimlane;fontStyle=1;align=center;verticalAlign=top;childLayout=stackLayout;horizontal=1;startSize=26;horizontalStack=0;resizeParent=1;resizeParentMax=0;resizeLast=0;collapsible=1;marginBottom=0;whiteSpace=wrap;html=1;" parent="1" vertex="1">
          <mxGeometry x="3600" y="150" width="240" height="366" as="geometry" />
        </mxCell>
        <mxCell id="33G6VH_ctWsSGi1h_gjd-73" value="+mediaModel&lt;br&gt;+trashModel&lt;br&gt;+image: UIImage?&lt;br&gt;+url: URL?&lt;br&gt;+objectID: NSManagedObjectID?&lt;br&gt;+metadataArray&lt;br&gt;+metadata: [String]&lt;br&gt;+deleteButton: UIButton&lt;br&gt;+playButton: UIButton&lt;br&gt;+videoTitle: UILabel&lt;br style=&quot;border-color: var(--border-color);&quot;&gt;+videoView: UIImageView&lt;br&gt;+tableView: UITableView&lt;br&gt;+videoViewContainer: UIView" style="text;strokeColor=none;fillColor=none;align=left;verticalAlign=top;spacingLeft=4;spacingRight=4;overflow=hidden;rotatable=0;points=[[0,0.5],[1,0.5]];portConstraint=eastwest;whiteSpace=wrap;html=1;" parent="33G6VH_ctWsSGi1h_gjd-72" vertex="1">
          <mxGeometry y="26" width="240" height="200" as="geometry" />
        </mxCell>
        <mxCell id="33G6VH_ctWsSGi1h_gjd-74" value="" style="line;strokeWidth=1;fillColor=none;align=left;verticalAlign=middle;spacingTop=-1;spacingLeft=3;spacingRight=3;rotatable=0;labelPosition=right;points=[];portConstraint=eastwest;strokeColor=inherit;" parent="33G6VH_ctWsSGi1h_gjd-72" vertex="1">
          <mxGeometry y="226" width="240" height="10" as="geometry" />
        </mxCell>
        <mxCell id="33G6VH_ctWsSGi1h_gjd-75" value="+viewDidLoad()&lt;br&gt;+viewDidLayoutSubviews()&lt;br&gt;+updateUI(notification: Notification)&lt;br&gt;+updateURL(notification: Notification)&lt;br&gt;+updateObjectID(notification: Notification)&lt;br&gt;+deleteItem()&lt;br&gt;+editTablePressed(indexPath: IndexPath)&lt;br&gt;+playVideo()" style="text;strokeColor=none;fillColor=none;align=left;verticalAlign=top;spacingLeft=4;spacingRight=4;overflow=hidden;rotatable=0;points=[[0,0.5],[1,0.5]];portConstraint=eastwest;whiteSpace=wrap;html=1;" parent="33G6VH_ctWsSGi1h_gjd-72" vertex="1">
          <mxGeometry y="236" width="240" height="130" as="geometry" />
        </mxCell>
        <mxCell id="33G6VH_ctWsSGi1h_gjd-91" style="edgeStyle=orthogonalEdgeStyle;rounded=0;orthogonalLoop=1;jettySize=auto;html=1;exitX=0.5;exitY=0;exitDx=0;exitDy=0;entryX=0.5;entryY=1;entryDx=0;entryDy=0;" parent="1" source="33G6VH_ctWsSGi1h_gjd-80" target="33G6VH_ctWsSGi1h_gjd-87" edge="1">
          <mxGeometry relative="1" as="geometry" />
        </mxCell>
        <mxCell id="33G6VH_ctWsSGi1h_gjd-93" value="inherits" style="edgeLabel;html=1;align=center;verticalAlign=middle;resizable=0;points=[];" parent="33G6VH_ctWsSGi1h_gjd-91" vertex="1" connectable="0">
          <mxGeometry x="-0.7671" relative="1" as="geometry">
            <mxPoint as="offset" />
          </mxGeometry>
        </mxCell>
        <mxCell id="33G6VH_ctWsSGi1h_gjd-80" value="Media" style="swimlane;fontStyle=1;align=center;verticalAlign=top;childLayout=stackLayout;horizontal=1;startSize=26;horizontalStack=0;resizeParent=1;resizeParentMax=0;resizeLast=0;collapsible=1;marginBottom=0;whiteSpace=wrap;html=1;" parent="1" vertex="1">
          <mxGeometry x="1350" y="-248" width="160" height="248" as="geometry" />
        </mxCell>
        <mxCell id="33G6VH_ctWsSGi1h_gjd-81" value="+zeit: String&lt;br&gt;+url: String&lt;br&gt;+rudiment: String&lt;br&gt;+kamerahersteller: String&lt;br&gt;+interpret: String&lt;br&gt;+hand: String&lt;br&gt;+grip: String&lt;br&gt;+bpm: Int64&lt;br&gt;+aufnahmedatum: Date&lt;br&gt;+aufloesung: String&lt;br&gt;+grip_matched: String&lt;br&gt;+dauer: String&lt;br&gt;+bildwiederholrate: String&lt;br&gt;+isPhoto: String" style="text;strokeColor=none;fillColor=none;align=left;verticalAlign=top;spacingLeft=4;spacingRight=4;overflow=hidden;rotatable=0;points=[[0,0.5],[1,0.5]];portConstraint=eastwest;whiteSpace=wrap;html=1;" parent="33G6VH_ctWsSGi1h_gjd-80" vertex="1">
          <mxGeometry y="26" width="160" height="214" as="geometry" />
        </mxCell>
        <mxCell id="33G6VH_ctWsSGi1h_gjd-82" value="" style="line;strokeWidth=1;fillColor=none;align=left;verticalAlign=middle;spacingTop=-1;spacingLeft=3;spacingRight=3;rotatable=0;labelPosition=right;points=[];portConstraint=eastwest;strokeColor=inherit;" parent="33G6VH_ctWsSGi1h_gjd-80" vertex="1">
          <mxGeometry y="240" width="160" height="8" as="geometry" />
        </mxCell>
        <mxCell id="33G6VH_ctWsSGi1h_gjd-92" style="edgeStyle=orthogonalEdgeStyle;rounded=0;orthogonalLoop=1;jettySize=auto;html=1;exitX=0.5;exitY=0;exitDx=0;exitDy=0;entryX=0.5;entryY=1;entryDx=0;entryDy=0;" parent="1" source="33G6VH_ctWsSGi1h_gjd-84" target="33G6VH_ctWsSGi1h_gjd-87" edge="1">
          <mxGeometry relative="1" as="geometry" />
        </mxCell>
        <mxCell id="33G6VH_ctWsSGi1h_gjd-94" value="inherits" style="edgeLabel;html=1;align=center;verticalAlign=middle;resizable=0;points=[];" parent="33G6VH_ctWsSGi1h_gjd-92" vertex="1" connectable="0">
          <mxGeometry x="-0.7464" y="-1" relative="1" as="geometry">
            <mxPoint as="offset" />
          </mxGeometry>
        </mxCell>
        <mxCell id="33G6VH_ctWsSGi1h_gjd-84" value="Trash" style="swimlane;fontStyle=1;align=center;verticalAlign=top;childLayout=stackLayout;horizontal=1;startSize=26;horizontalStack=0;resizeParent=1;resizeParentMax=0;resizeLast=0;collapsible=1;marginBottom=0;whiteSpace=wrap;html=1;" parent="1" vertex="1">
          <mxGeometry x="1527" y="-248" width="160" height="248" as="geometry" />
        </mxCell>
        <mxCell id="33G6VH_ctWsSGi1h_gjd-85" value="+zeit: String&lt;br&gt;+url: String&lt;br&gt;+rudiment: String&lt;br&gt;+kamerahersteller: String&lt;br&gt;+interpret: String&lt;br&gt;+hand: String&lt;br&gt;+grip: String&lt;br&gt;+bpm: Int64&lt;br&gt;+aufnahmedatum: Date&lt;br&gt;+aufloesung: String&lt;br&gt;+grip_matched: String&lt;br&gt;+dauer: String&lt;br&gt;+bildwiederholrate: String&lt;br&gt;+isPhoto: String" style="text;strokeColor=none;fillColor=none;align=left;verticalAlign=top;spacingLeft=4;spacingRight=4;overflow=hidden;rotatable=0;points=[[0,0.5],[1,0.5]];portConstraint=eastwest;whiteSpace=wrap;html=1;" parent="33G6VH_ctWsSGi1h_gjd-84" vertex="1">
          <mxGeometry y="26" width="160" height="214" as="geometry" />
        </mxCell>
        <mxCell id="33G6VH_ctWsSGi1h_gjd-86" value="" style="line;strokeWidth=1;fillColor=none;align=left;verticalAlign=middle;spacingTop=-1;spacingLeft=3;spacingRight=3;rotatable=0;labelPosition=right;points=[];portConstraint=eastwest;strokeColor=inherit;" parent="33G6VH_ctWsSGi1h_gjd-84" vertex="1">
          <mxGeometry y="240" width="160" height="8" as="geometry" />
        </mxCell>
        <mxCell id="33G6VH_ctWsSGi1h_gjd-87" value="NSManagedObject" style="swimlane;fontStyle=1;align=center;verticalAlign=top;childLayout=stackLayout;horizontal=1;startSize=26;horizontalStack=0;resizeParent=1;resizeParentMax=0;resizeLast=0;collapsible=1;marginBottom=0;whiteSpace=wrap;html=1;" parent="1" vertex="1">
          <mxGeometry x="1440" y="-398" width="160" height="34" as="geometry">
            <mxRectangle x="580" y="620" width="150" height="30" as="alternateBounds" />
          </mxGeometry>
        </mxCell>
        <mxCell id="33G6VH_ctWsSGi1h_gjd-89" value="" style="line;strokeWidth=1;fillColor=none;align=left;verticalAlign=middle;spacingTop=-1;spacingLeft=3;spacingRight=3;rotatable=0;labelPosition=right;points=[];portConstraint=eastwest;strokeColor=inherit;" parent="33G6VH_ctWsSGi1h_gjd-87" vertex="1">
          <mxGeometry y="26" width="160" height="8" as="geometry" />
        </mxCell>
        <mxCell id="33G6VH_ctWsSGi1h_gjd-95" value="ObservableObject" style="swimlane;fontStyle=1;align=center;verticalAlign=top;childLayout=stackLayout;horizontal=1;startSize=26;horizontalStack=0;resizeParent=1;resizeParentMax=0;resizeLast=0;collapsible=1;marginBottom=0;whiteSpace=wrap;html=1;" parent="1" vertex="1">
          <mxGeometry x="2090" y="-398" width="160" height="34" as="geometry" />
        </mxCell>
        <mxCell id="33G6VH_ctWsSGi1h_gjd-96" value="" style="line;strokeWidth=1;fillColor=none;align=left;verticalAlign=middle;spacingTop=-1;spacingLeft=3;spacingRight=3;rotatable=0;labelPosition=right;points=[];portConstraint=eastwest;strokeColor=inherit;" parent="33G6VH_ctWsSGi1h_gjd-95" vertex="1">
          <mxGeometry y="26" width="160" height="8" as="geometry" />
        </mxCell>
        <mxCell id="33G6VH_ctWsSGi1h_gjd-105" style="edgeStyle=orthogonalEdgeStyle;rounded=0;orthogonalLoop=1;jettySize=auto;html=1;exitX=0.5;exitY=0;exitDx=0;exitDy=0;entryX=0.5;entryY=1;entryDx=0;entryDy=0;" parent="1" source="33G6VH_ctWsSGi1h_gjd-97" target="33G6VH_ctWsSGi1h_gjd-95" edge="1">
          <mxGeometry relative="1" as="geometry" />
        </mxCell>
        <mxCell id="33G6VH_ctWsSGi1h_gjd-108" value="inherits" style="edgeLabel;html=1;align=center;verticalAlign=middle;resizable=0;points=[];" parent="33G6VH_ctWsSGi1h_gjd-105" vertex="1" connectable="0">
          <mxGeometry x="-0.8814" relative="1" as="geometry">
            <mxPoint as="offset" />
          </mxGeometry>
        </mxCell>
        <mxCell id="33G6VH_ctWsSGi1h_gjd-97" value="MediaModel" style="swimlane;fontStyle=1;align=center;verticalAlign=top;childLayout=stackLayout;horizontal=1;startSize=26;horizontalStack=0;resizeParent=1;resizeParentMax=0;resizeLast=0;collapsible=1;marginBottom=0;whiteSpace=wrap;html=1;" parent="1" vertex="1">
          <mxGeometry x="1770" y="-245" width="390" height="210" as="geometry" />
        </mxCell>
        <mxCell id="33G6VH_ctWsSGi1h_gjd-98" value="+image: UIImage?&lt;br&gt;+video: UIImage?&lt;br&gt;+url: String?&lt;br&gt;-context" style="text;strokeColor=none;fillColor=none;align=left;verticalAlign=top;spacingLeft=4;spacingRight=4;overflow=hidden;rotatable=0;points=[[0,0.5],[1,0.5]];portConstraint=eastwest;whiteSpace=wrap;html=1;" parent="33G6VH_ctWsSGi1h_gjd-97" vertex="1">
          <mxGeometry y="26" width="390" height="64" as="geometry" />
        </mxCell>
        <mxCell id="33G6VH_ctWsSGi1h_gjd-99" value="" style="line;strokeWidth=1;fillColor=none;align=left;verticalAlign=middle;spacingTop=-1;spacingLeft=3;spacingRight=3;rotatable=0;labelPosition=right;points=[];portConstraint=eastwest;strokeColor=inherit;" parent="33G6VH_ctWsSGi1h_gjd-97" vertex="1">
          <mxGeometry y="90" width="390" height="8" as="geometry" />
        </mxCell>
        <mxCell id="33G6VH_ctWsSGi1h_gjd-100" value="+saveMedia(url: URL, array: [String])&lt;br&gt;+getMedia()&lt;br&gt;+getObjectIDs()&lt;br&gt;+getPhotoMetadata(objectID: NSManagedObjectID)&lt;br&gt;+getVideoMetadata(objectID: NSManagedObjectID)&lt;br&gt;+savePhotoMetadata(objectID: NSManagedObjectID, array: [String])&lt;br&gt;+saveVideoMetadata(objectID: NSManagedObjectID, array: [String])" style="text;strokeColor=none;fillColor=none;align=left;verticalAlign=top;spacingLeft=4;spacingRight=4;overflow=hidden;rotatable=0;points=[[0,0.5],[1,0.5]];portConstraint=eastwest;whiteSpace=wrap;html=1;" parent="33G6VH_ctWsSGi1h_gjd-97" vertex="1">
          <mxGeometry y="98" width="390" height="112" as="geometry" />
        </mxCell>
        <mxCell id="33G6VH_ctWsSGi1h_gjd-106" style="edgeStyle=orthogonalEdgeStyle;rounded=0;orthogonalLoop=1;jettySize=auto;html=1;exitX=0.5;exitY=0;exitDx=0;exitDy=0;entryX=0.5;entryY=1;entryDx=0;entryDy=0;" parent="1" source="33G6VH_ctWsSGi1h_gjd-101" target="33G6VH_ctWsSGi1h_gjd-95" edge="1">
          <mxGeometry relative="1" as="geometry" />
        </mxCell>
        <mxCell id="33G6VH_ctWsSGi1h_gjd-107" value="inherits" style="edgeLabel;html=1;align=center;verticalAlign=middle;resizable=0;points=[];" parent="33G6VH_ctWsSGi1h_gjd-106" vertex="1" connectable="0">
          <mxGeometry x="-0.8524" relative="1" as="geometry">
            <mxPoint as="offset" />
          </mxGeometry>
        </mxCell>
        <mxCell id="33G6VH_ctWsSGi1h_gjd-101" value="TrashModel" style="swimlane;fontStyle=1;align=center;verticalAlign=top;childLayout=stackLayout;horizontal=1;startSize=26;horizontalStack=0;resizeParent=1;resizeParentMax=0;resizeLast=0;collapsible=1;marginBottom=0;whiteSpace=wrap;html=1;" parent="1" vertex="1">
          <mxGeometry x="2180" y="-245" width="370" height="180" as="geometry" />
        </mxCell>
        <mxCell id="33G6VH_ctWsSGi1h_gjd-102" value="+image: UIImage?&lt;br&gt;+video: UIImage?&lt;br&gt;+url: String?&lt;br&gt;-context" style="text;strokeColor=none;fillColor=none;align=left;verticalAlign=top;spacingLeft=4;spacingRight=4;overflow=hidden;rotatable=0;points=[[0,0.5],[1,0.5]];portConstraint=eastwest;whiteSpace=wrap;html=1;" parent="33G6VH_ctWsSGi1h_gjd-101" vertex="1">
          <mxGeometry y="26" width="370" height="64" as="geometry" />
        </mxCell>
        <mxCell id="33G6VH_ctWsSGi1h_gjd-103" value="" style="line;strokeWidth=1;fillColor=none;align=left;verticalAlign=middle;spacingTop=-1;spacingLeft=3;spacingRight=3;rotatable=0;labelPosition=right;points=[];portConstraint=eastwest;strokeColor=inherit;" parent="33G6VH_ctWsSGi1h_gjd-101" vertex="1">
          <mxGeometry y="90" width="370" height="8" as="geometry" />
        </mxCell>
        <mxCell id="33G6VH_ctWsSGi1h_gjd-104" value="+moveObjectFromMediaToTrash(objectID: NSManagedObjectID)&lt;br&gt;+moveObjectFromTrashToMedia(objectID: NSManagedObjectID)&lt;br&gt;+getTrash()&lt;br&gt;+emptyTrash()&lt;br&gt;+getObjectIDs()" style="text;strokeColor=none;fillColor=none;align=left;verticalAlign=top;spacingLeft=4;spacingRight=4;overflow=hidden;rotatable=0;points=[[0,0.5],[1,0.5]];portConstraint=eastwest;whiteSpace=wrap;html=1;" parent="33G6VH_ctWsSGi1h_gjd-101" vertex="1">
          <mxGeometry y="98" width="370" height="82" as="geometry" />
        </mxCell>
        <mxCell id="UMas64j7VplTzz6hll_I-18" style="edgeStyle=orthogonalEdgeStyle;rounded=0;orthogonalLoop=1;jettySize=auto;html=1;exitX=0.5;exitY=0;exitDx=0;exitDy=0;entryX=0.5;entryY=1;entryDx=0;entryDy=0;" parent="1" source="UMas64j7VplTzz6hll_I-4" target="UMas64j7VplTzz6hll_I-12" edge="1">
          <mxGeometry relative="1" as="geometry" />
        </mxCell>
        <mxCell id="UMas64j7VplTzz6hll_I-19" value="inherits" style="edgeLabel;html=1;align=center;verticalAlign=middle;resizable=0;points=[];" parent="UMas64j7VplTzz6hll_I-18" vertex="1" connectable="0">
          <mxGeometry x="-0.0084" y="2" relative="1" as="geometry">
            <mxPoint as="offset" />
          </mxGeometry>
        </mxCell>
        <mxCell id="UMas64j7VplTzz6hll_I-22" style="edgeStyle=orthogonalEdgeStyle;rounded=0;orthogonalLoop=1;jettySize=auto;html=1;exitX=0.75;exitY=0;exitDx=0;exitDy=0;entryX=0.5;entryY=1;entryDx=0;entryDy=0;" parent="1" source="UMas64j7VplTzz6hll_I-4" target="UMas64j7VplTzz6hll_I-14" edge="1">
          <mxGeometry relative="1" as="geometry" />
        </mxCell>
        <mxCell id="UMas64j7VplTzz6hll_I-25" value="inherits" style="edgeLabel;html=1;align=center;verticalAlign=middle;resizable=0;points=[];" parent="UMas64j7VplTzz6hll_I-22" vertex="1" connectable="0">
          <mxGeometry x="-0.7571" y="-1" relative="1" as="geometry">
            <mxPoint as="offset" />
          </mxGeometry>
        </mxCell>
        <mxCell id="UMas64j7VplTzz6hll_I-4" value="AppDelegate" style="swimlane;fontStyle=1;align=center;verticalAlign=top;childLayout=stackLayout;horizontal=1;startSize=26;horizontalStack=0;resizeParent=1;resizeParentMax=0;resizeLast=0;collapsible=1;marginBottom=0;whiteSpace=wrap;html=1;" parent="1" vertex="1">
          <mxGeometry x="2630" y="-245" width="160" height="58" as="geometry" />
        </mxCell>
        <mxCell id="UMas64j7VplTzz6hll_I-5" value="+window: UIWindow?" style="text;strokeColor=none;fillColor=none;align=left;verticalAlign=top;spacingLeft=4;spacingRight=4;overflow=hidden;rotatable=0;points=[[0,0.5],[1,0.5]];portConstraint=eastwest;whiteSpace=wrap;html=1;" parent="UMas64j7VplTzz6hll_I-4" vertex="1">
          <mxGeometry y="26" width="160" height="24" as="geometry" />
        </mxCell>
        <mxCell id="UMas64j7VplTzz6hll_I-6" value="" style="line;strokeWidth=1;fillColor=none;align=left;verticalAlign=middle;spacingTop=-1;spacingLeft=3;spacingRight=3;rotatable=0;labelPosition=right;points=[];portConstraint=eastwest;strokeColor=inherit;" parent="UMas64j7VplTzz6hll_I-4" vertex="1">
          <mxGeometry y="50" width="160" height="8" as="geometry" />
        </mxCell>
        <mxCell id="UMas64j7VplTzz6hll_I-20" style="edgeStyle=orthogonalEdgeStyle;rounded=0;orthogonalLoop=1;jettySize=auto;html=1;exitX=0.5;exitY=0;exitDx=0;exitDy=0;entryX=0.5;entryY=1;entryDx=0;entryDy=0;" parent="1" source="UMas64j7VplTzz6hll_I-8" target="UMas64j7VplTzz6hll_I-16" edge="1">
          <mxGeometry relative="1" as="geometry" />
        </mxCell>
        <mxCell id="UMas64j7VplTzz6hll_I-21" value="inherits" style="edgeLabel;html=1;align=center;verticalAlign=middle;resizable=0;points=[];" parent="UMas64j7VplTzz6hll_I-20" vertex="1" connectable="0">
          <mxGeometry x="0.0252" y="-1" relative="1" as="geometry">
            <mxPoint as="offset" />
          </mxGeometry>
        </mxCell>
        <mxCell id="UMas64j7VplTzz6hll_I-23" style="edgeStyle=orthogonalEdgeStyle;rounded=0;orthogonalLoop=1;jettySize=auto;html=1;exitX=0.25;exitY=0;exitDx=0;exitDy=0;entryX=0.5;entryY=1;entryDx=0;entryDy=0;" parent="1" source="UMas64j7VplTzz6hll_I-8" target="UMas64j7VplTzz6hll_I-14" edge="1">
          <mxGeometry relative="1" as="geometry" />
        </mxCell>
        <mxCell id="UMas64j7VplTzz6hll_I-24" value="inherits" style="edgeLabel;html=1;align=center;verticalAlign=middle;resizable=0;points=[];" parent="UMas64j7VplTzz6hll_I-23" vertex="1" connectable="0">
          <mxGeometry x="-0.6103" relative="1" as="geometry">
            <mxPoint as="offset" />
          </mxGeometry>
        </mxCell>
        <mxCell id="UMas64j7VplTzz6hll_I-8" value="AppDelegate" style="swimlane;fontStyle=1;align=center;verticalAlign=top;childLayout=stackLayout;horizontal=1;startSize=26;horizontalStack=0;resizeParent=1;resizeParentMax=0;resizeLast=0;collapsible=1;marginBottom=0;whiteSpace=wrap;html=1;" parent="1" vertex="1">
          <mxGeometry x="2810" y="-245" width="560" height="90" as="geometry" />
        </mxCell>
        <mxCell id="UMas64j7VplTzz6hll_I-9" value="+window: UIWindow?" style="text;strokeColor=none;fillColor=none;align=left;verticalAlign=top;spacingLeft=4;spacingRight=4;overflow=hidden;rotatable=0;points=[[0,0.5],[1,0.5]];portConstraint=eastwest;whiteSpace=wrap;html=1;" parent="UMas64j7VplTzz6hll_I-8" vertex="1">
          <mxGeometry y="26" width="560" height="24" as="geometry" />
        </mxCell>
        <mxCell id="UMas64j7VplTzz6hll_I-10" value="" style="line;strokeWidth=1;fillColor=none;align=left;verticalAlign=middle;spacingTop=-1;spacingLeft=3;spacingRight=3;rotatable=0;labelPosition=right;points=[];portConstraint=eastwest;strokeColor=inherit;" parent="UMas64j7VplTzz6hll_I-8" vertex="1">
          <mxGeometry y="50" width="560" height="8" as="geometry" />
        </mxCell>
        <mxCell id="UMas64j7VplTzz6hll_I-11" value="+scene(scene: UIScene, session: UISceneSession, connectionOptions: UIScene.ConnectionOptions)&#xa;" style="text;strokeColor=none;fillColor=none;align=left;verticalAlign=top;spacingLeft=4;spacingRight=4;overflow=hidden;rotatable=0;points=[[0,0.5],[1,0.5]];portConstraint=eastwest;whiteSpace=wrap;html=1;" parent="UMas64j7VplTzz6hll_I-8" vertex="1">
          <mxGeometry y="58" width="560" height="32" as="geometry" />
        </mxCell>
        <mxCell id="UMas64j7VplTzz6hll_I-12" value="UIApplicationDelegate" style="swimlane;fontStyle=1;align=center;verticalAlign=top;childLayout=stackLayout;horizontal=1;startSize=26;horizontalStack=0;resizeParent=1;resizeParentMax=0;resizeLast=0;collapsible=1;marginBottom=0;whiteSpace=wrap;html=1;" parent="1" vertex="1">
          <mxGeometry x="2630" y="-398" width="160" height="34" as="geometry" />
        </mxCell>
        <mxCell id="UMas64j7VplTzz6hll_I-13" value="" style="line;strokeWidth=1;fillColor=none;align=left;verticalAlign=middle;spacingTop=-1;spacingLeft=3;spacingRight=3;rotatable=0;labelPosition=right;points=[];portConstraint=eastwest;strokeColor=inherit;" parent="UMas64j7VplTzz6hll_I-12" vertex="1">
          <mxGeometry y="26" width="160" height="8" as="geometry" />
        </mxCell>
        <mxCell id="UMas64j7VplTzz6hll_I-14" value="UIResponder" style="swimlane;fontStyle=1;align=center;verticalAlign=top;childLayout=stackLayout;horizontal=1;startSize=26;horizontalStack=0;resizeParent=1;resizeParentMax=0;resizeLast=0;collapsible=1;marginBottom=0;whiteSpace=wrap;html=1;" parent="1" vertex="1">
          <mxGeometry x="2834.5" y="-398" width="120" height="34" as="geometry" />
        </mxCell>
        <mxCell id="UMas64j7VplTzz6hll_I-15" value="" style="line;strokeWidth=1;fillColor=none;align=left;verticalAlign=middle;spacingTop=-1;spacingLeft=3;spacingRight=3;rotatable=0;labelPosition=right;points=[];portConstraint=eastwest;strokeColor=inherit;" parent="UMas64j7VplTzz6hll_I-14" vertex="1">
          <mxGeometry y="26" width="120" height="8" as="geometry" />
        </mxCell>
        <mxCell id="UMas64j7VplTzz6hll_I-16" value="UIWindowSceneDelegate" style="swimlane;fontStyle=1;align=center;verticalAlign=top;childLayout=stackLayout;horizontal=1;startSize=26;horizontalStack=0;resizeParent=1;resizeParentMax=0;resizeLast=0;collapsible=1;marginBottom=0;whiteSpace=wrap;html=1;" parent="1" vertex="1">
          <mxGeometry x="3000" y="-398" width="180" height="34" as="geometry" />
        </mxCell>
        <mxCell id="UMas64j7VplTzz6hll_I-17" value="" style="line;strokeWidth=1;fillColor=none;align=left;verticalAlign=middle;spacingTop=-1;spacingLeft=3;spacingRight=3;rotatable=0;labelPosition=right;points=[];portConstraint=eastwest;strokeColor=inherit;" parent="UMas64j7VplTzz6hll_I-16" vertex="1">
          <mxGeometry y="26" width="180" height="8" as="geometry" />
        </mxCell>
        <mxCell id="GSpmD38TV-JpugFS3Ip1-1" value="MediaPipeHandLandmarker" style="swimlane;fontStyle=1;align=center;verticalAlign=top;childLayout=stackLayout;horizontal=1;startSize=26;horizontalStack=0;resizeParent=1;resizeParentMax=0;resizeLast=0;collapsible=1;marginBottom=0;whiteSpace=wrap;html=1;" vertex="1" parent="1">
          <mxGeometry x="3690" y="-247" width="390" height="200" as="geometry" />
        </mxCell>
        <mxCell id="GSpmD38TV-JpugFS3Ip1-2" value="-handLandmarker: HandLandmarker?&lt;br&gt;-options: HandLandmarkerOptions&lt;br&gt;+uiImage: UIImage?&lt;br&gt;+result: HandLandmarkerResult?" style="text;strokeColor=none;fillColor=none;align=left;verticalAlign=top;spacingLeft=4;spacingRight=4;overflow=hidden;rotatable=0;points=[[0,0.5],[1,0.5]];portConstraint=eastwest;whiteSpace=wrap;html=1;" vertex="1" parent="GSpmD38TV-JpugFS3Ip1-1">
          <mxGeometry y="26" width="390" height="74" as="geometry" />
        </mxCell>
        <mxCell id="GSpmD38TV-JpugFS3Ip1-3" value="" style="line;strokeWidth=1;fillColor=none;align=left;verticalAlign=middle;spacingTop=-1;spacingLeft=3;spacingRight=3;rotatable=0;labelPosition=right;points=[];portConstraint=eastwest;strokeColor=inherit;" vertex="1" parent="GSpmD38TV-JpugFS3Ip1-1">
          <mxGeometry y="100" width="390" height="8" as="geometry" />
        </mxCell>
        <mxCell id="GSpmD38TV-JpugFS3Ip1-4" value="+init()&lt;br&gt;+detectHands(image: UIImage)&lt;br&gt;+drawBoundingBoxes()&lt;br&gt;+drawLandmarks()&lt;br&gt;+getWorldLandmarks(result: HandLandmarkerResult, image: UIImage)" style="text;strokeColor=none;fillColor=none;align=left;verticalAlign=top;spacingLeft=4;spacingRight=4;overflow=hidden;rotatable=0;points=[[0,0.5],[1,0.5]];portConstraint=eastwest;whiteSpace=wrap;html=1;" vertex="1" parent="GSpmD38TV-JpugFS3Ip1-1">
          <mxGeometry y="108" width="390" height="92" as="geometry" />
        </mxCell>
      </root>
    </mxGraphModel>
  </diagram>
</mxfile>
